<svg width="73" height="55" viewBox="0 0 73 55" fill="none" xmlns="http://www.w3.org/2000/svg">
<path d="M34.4286 41.5807C34.3944 41.6495 34.3602 41.7044 34.4286 41.5807V41.5807ZM62.8453 31.6128C60.5512 31.612 58.2876 32.1412 56.2296 33.1595C55.5567 31.7961 54.8609 30.6045 54.7468 29.7108C54.6099 28.6682 54.4616 28.0495 54.6213 26.8121C54.781 25.5747 55.4996 23.8217 55.4882 23.6957C55.4768 23.5697 55.3285 22.9395 53.8571 22.9281C52.3857 22.9166 51.1196 23.2145 50.9724 23.604C50.7126 24.316 50.5104 25.0478 50.3679 25.7924C50.1055 27.1329 47.4262 31.9221 45.9091 34.4198C45.4073 33.446 44.9852 32.5867 44.894 31.8992C44.7571 30.8566 44.6088 30.2379 44.7685 29.0005C44.9282 27.7631 45.6468 26.0101 45.6354 25.8841C45.624 25.758 45.4757 25.1279 44.0054 25.1164C42.5351 25.105 41.2679 25.4029 41.1196 25.7924C40.9713 26.182 40.8116 27.0986 40.5151 27.9808C40.2185 28.863 36.6494 36.8373 35.7153 38.9111C35.2362 39.9652 34.8256 40.8131 34.529 41.3859C34.4834 41.4776 34.4492 41.5349 34.4263 41.5807C34.4606 41.5234 34.4834 41.4661 34.4834 41.489C34.2324 41.9817 34.0841 42.2567 34.0841 42.2567V42.2682C33.8902 42.6348 33.6735 42.9671 33.5709 42.9671C33.5024 42.9671 33.3541 42.0046 33.6051 40.687C34.1412 37.9143 35.4073 33.6064 35.3959 33.4574C35.3845 33.3772 35.6354 32.6325 34.5632 32.2315C33.5252 31.8534 33.1488 32.4835 33.0576 32.4835C32.9663 32.4835 32.8979 32.7127 32.8979 32.7127C32.8979 32.7127 34.0499 27.8547 30.6862 27.8547C28.5874 27.8547 25.6674 30.1691 24.2325 32.2658C23.3313 32.7585 21.3809 33.824 19.3277 34.9583C18.5407 35.3937 17.7308 35.8405 16.9666 36.2645C16.9096 36.2072 16.8639 36.1499 16.8069 36.0926C12.7246 31.7159 5.18722 28.6224 5.5066 22.7447C5.62066 20.6022 6.36207 14.9766 20.0007 8.14802C31.1789 2.55681 40.1158 4.0921 41.6546 7.5064C43.8674 12.3758 36.8764 21.4386 25.2682 22.7447C20.8436 23.2374 18.5179 21.5188 17.9361 20.8772C17.3316 20.2012 17.2403 20.1668 17.0122 20.2929C16.6358 20.4991 16.8753 21.0949 17.0122 21.4501C17.3544 22.3552 18.7802 23.9592 21.2086 24.7612C23.3416 25.4601 28.5292 25.8497 34.8016 23.4093C41.8485 20.6824 47.3338 13.0862 45.7255 6.7273C44.0875 0.265326 33.4203 -1.85429 23.3336 1.74333C17.3236 3.88586 10.8243 7.25434 6.14877 11.6425C0.595007 16.8671 -0.29355 21.4157 0.0714538 23.3176C1.37064 30.066 10.6303 34.4657 14.3363 37.7196C14.1538 37.8227 13.9827 37.9143 13.823 38.006C11.9649 38.934 4.90548 42.6462 3.13863 46.5647C1.14251 51.0101 3.46942 54.1953 4.99673 54.6307C9.76346 55.9597 14.6442 53.5651 17.2666 49.6353C19.8889 45.7054 19.5707 40.5725 18.3616 38.2351C18.3502 38.2008 18.3274 38.1779 18.316 38.1435C18.795 37.8571 19.2855 37.5706 19.776 37.2842C20.7216 36.7228 21.6455 36.2072 22.4553 35.7603C21.9991 36.9977 21.6683 38.4872 21.4972 40.6412C21.2919 43.1618 22.3299 46.4272 23.6758 47.7104C24.269 48.2718 24.9864 48.2833 25.4313 48.2833C27.0053 48.2833 27.7125 46.9771 28.4984 45.4189C29.468 43.517 30.3235 41.3057 30.3235 41.3057C30.3235 41.3057 29.2513 47.2865 32.1827 47.2865C33.2538 47.2865 34.326 45.9002 34.8062 45.1898V45.2012C34.8062 45.2012 34.829 45.1554 34.886 45.0638C35.0001 44.8919 35.0571 44.7888 35.0571 44.7888V44.7544C35.4906 44.0097 36.4373 42.3025 37.8619 39.484C39.7098 35.8405 41.4766 31.292 41.4766 31.292C41.6474 32.2919 41.8836 33.2793 42.1838 34.248C42.5032 35.3364 43.1762 36.528 43.7123 37.6852C43.2788 38.281 43.0165 38.6247 43.0165 38.6247C43.0173 38.6335 43.0214 38.6417 43.0279 38.6476C42.6857 39.1059 42.2979 39.5986 41.8987 40.0798C40.4398 41.8213 38.7049 43.8149 38.4767 44.3878C38.203 45.0638 38.2714 45.5679 38.7961 45.9574C39.1839 46.2553 39.8683 46.3012 40.5858 46.2439C41.8975 46.1522 42.8214 45.8314 43.2663 45.6252C44.0864 45.3298 44.8615 44.921 45.5692 44.4107C46.995 43.3566 47.8619 41.8442 47.7821 39.8506C47.7364 38.7507 47.3828 37.6508 46.9494 36.6197C47.0749 36.4363 47.2118 36.2416 47.3372 36.0468C49.5945 32.7356 51.3397 29.1013 51.3397 29.1013C51.5105 30.1012 51.7467 31.0887 52.0469 32.0573C52.3207 32.9854 52.8556 34.0051 53.3461 35.0019C51.2257 36.7319 49.9139 38.737 49.4577 40.0546C48.6136 42.495 49.2752 43.5949 50.5185 43.847C51.0774 43.9616 51.8758 43.698 52.469 43.446C53.3498 43.1513 54.1804 42.7223 54.9316 42.1742C56.3574 41.1201 57.7364 39.6421 57.6452 37.6371C57.611 36.7319 57.36 35.8268 57.0292 34.956C58.82 34.1999 61.1458 33.7874 64.1115 34.1311C70.4625 34.8758 71.7058 38.863 71.4663 40.5243C71.2268 42.1857 69.8922 43.1137 69.4474 43.3887C69.0025 43.6637 68.8656 43.7668 68.8998 43.973C68.9569 44.2709 69.1622 44.2594 69.5386 44.1907C70.0633 44.099 72.8681 42.8387 72.9936 39.7567C73.1761 35.8612 69.4474 31.5761 62.8419 31.6105L62.8453 31.6128ZM13.8914 48.1916C11.7938 50.4946 8.85095 51.3653 7.58598 50.6321C6.22862 49.8392 6.76472 46.4501 9.35283 43.9959C10.9269 42.5065 12.9561 41.1316 14.3021 40.2837C14.61 40.1004 15.0549 39.8254 15.6024 39.4932C15.6936 39.4359 15.7393 39.413 15.7393 39.413C15.8419 39.3442 15.956 39.2869 16.07 39.2182C17.0156 42.7012 16.1043 45.7718 13.8914 48.1893V48.1916ZM29.217 37.7196C28.487 39.5184 26.9483 44.1013 26.013 43.8607C25.2145 43.6545 24.7241 40.16 25.8533 36.7228C26.4236 34.9927 27.6327 32.9304 28.3513 32.1284C29.5022 30.8337 30.7683 30.4212 31.0649 30.9368C31.4641 31.6128 29.6733 36.5967 29.217 37.7196ZM41.8781 43.792C41.5702 43.9524 41.285 44.0555 41.1481 43.9753C41.0455 43.918 41.2736 43.7003 41.2736 43.7003C41.2736 43.7003 42.8591 41.9932 43.4864 41.2141C43.8514 40.7558 44.2735 40.2173 44.7286 39.6215C44.7286 39.6788 44.74 39.7361 44.74 39.8048C44.7252 41.8557 42.7644 43.242 41.8747 43.792H41.8781ZM51.6397 41.5578C51.4116 41.3974 51.4458 40.8589 52.21 39.1861C52.5066 38.533 53.1898 37.4331 54.3772 36.379C54.5117 36.7781 54.5847 37.1953 54.594 37.6164C54.5826 40.1944 52.7461 41.1568 51.6409 41.5578H51.6397Z" fill="#CD6799"/>
</svg>
