<svg width="32" height="29" viewBox="0 0 32 29" fill="none" xmlns="http://www.w3.org/2000/svg">
<path d="M16 11.3824C14.427 11.3824 13.146 12.6634 13.146 14.2364C13.146 15.8094 14.427 17.0904 16 17.0904C17.573 17.0904 18.854 15.8094 18.854 14.2364C18.854 12.6634 17.573 11.3824 16 11.3824ZM8.01 19.9084L7.38 19.7524C2.692 18.5644 0 16.5544 0 14.2314C0 11.9084 2.693 9.89836 7.38 8.71036L8.01 8.55436L8.187 9.17936C8.661 10.8144 9.27 12.4084 10.005 13.9504L10.14 14.2314L10.005 14.5174C9.271 16.0534 8.661 17.6474 8.187 19.2884L8.01 19.9084ZM7.089 10.1684C3.526 11.1684 1.339 12.7044 1.339 14.2314C1.339 15.7584 3.527 17.2884 7.089 18.2944C7.527 16.9034 8.053 15.5494 8.667 14.2314C8.052 12.9134 7.526 11.5594 7.089 10.1684V10.1684ZM23.99 19.9084L23.813 19.2834C23.339 17.6484 22.73 16.0544 21.995 14.5174L21.86 14.2314L21.995 13.9454C22.729 12.4094 23.339 10.8154 23.813 9.17436L23.99 8.55436L24.62 8.71036C29.308 9.89836 32 11.9084 32 14.2314C32 16.5544 29.307 18.5644 24.62 19.7524L23.99 19.9084ZM23.333 14.2314C23.974 15.6164 24.505 16.9764 24.911 18.2944C28.479 17.2894 30.661 15.7584 30.661 14.2314C30.661 12.7044 28.473 11.1744 24.911 10.1684C24.473 11.5534 23.947 12.9134 23.333 14.2314V14.2314ZM7.078 10.1634L6.901 9.53836C5.583 4.89236 5.984 1.55936 8 0.397362C9.979 -0.743638 13.151 0.605362 16.479 4.02236L16.932 4.48636L16.479 4.95036C15.297 6.17936 14.219 7.50236 13.25 8.90836L13.068 9.16336L12.755 9.18936C11.052 9.32436 9.364 9.59536 7.708 10.0024L7.078 10.1634ZM9.609 1.32536C9.25 1.32536 8.932 1.39836 8.666 1.55436C7.343 2.32036 7.109 4.97636 8.02 8.55936C9.442 8.24136 10.879 8.01736 12.333 7.88736C13.166 6.69936 14.083 5.56436 15.067 4.49636C12.989 2.47036 11.02 1.32436 9.609 1.32436V1.32536ZM22.396 28.4704C22.391 28.4704 22.391 28.4704 22.396 28.4704C20.495 28.4704 18.052 27.0434 15.521 24.4394L15.068 23.9754L15.521 23.5114C16.703 22.2824 17.781 20.9594 18.75 19.5534L18.927 19.2984L19.24 19.2674C20.943 19.1374 22.631 18.8664 24.292 18.4544L24.922 18.2984L25.099 18.9234C26.417 23.5694 26.016 26.8974 24 28.0584C23.51 28.3394 22.958 28.4804 22.396 28.4694V28.4704ZM16.932 23.9654C19.01 25.9914 20.979 27.1374 22.39 27.1374H22.395C22.749 27.1374 23.067 27.0594 23.333 26.9084C24.656 26.1424 24.896 23.4864 23.979 19.9034C22.557 20.2214 21.114 20.4454 19.666 20.5704C18.833 21.7634 17.916 22.8934 16.932 23.9664V23.9654ZM24.922 10.1634L24.292 10.0024C22.631 9.59636 20.943 9.32536 19.24 9.18936L18.927 9.16336L18.75 8.90836C17.781 7.50236 16.703 6.17936 15.521 4.95036L15.068 4.48636L15.521 4.02236C18.849 0.605362 22.021 -0.743638 24 0.397362C26.016 1.55836 26.417 4.89236 25.099 9.53836L24.922 10.1634ZM19.667 7.88736C21.188 8.02836 22.636 8.25236 23.98 8.55936C24.897 4.97636 24.657 2.31936 23.334 1.55436C22.016 0.794362 19.537 1.96036 16.933 4.49736C17.917 5.57036 18.829 6.70036 19.667 7.88836V7.88736ZM9.609 28.4704C9.046 28.4804 8.489 28.3404 8 28.0594C5.984 26.8984 5.583 23.5694 6.901 18.9244L7.078 18.2994L7.708 18.4554C9.25 18.8464 10.948 19.1164 12.755 19.2684L13.068 19.2994L13.245 19.5544C14.214 20.9604 15.292 22.2834 16.474 23.5124L16.927 23.9764L16.474 24.4404C13.948 27.0444 11.505 28.4714 9.609 28.4714V28.4704ZM8.021 19.9034C7.104 23.4864 7.344 26.1434 8.667 26.9084C9.985 27.6584 12.459 26.5024 15.068 23.9654C14.084 22.8924 13.167 21.7624 12.334 20.5694C10.881 20.4444 9.443 20.2204 8.021 19.9024V19.9034ZM16 20.7414C14.901 20.7414 13.776 20.6944 12.646 20.6004L12.333 20.5744L12.151 20.3144C11.516 19.3974 10.911 18.4554 10.354 17.4864C9.791 16.5174 9.276 15.5284 8.797 14.5174L8.662 14.2314L8.797 13.9454C9.276 12.9354 9.792 11.9454 10.354 10.9764C10.906 10.0234 11.51 9.07036 12.151 8.14836L12.333 7.88836L12.646 7.86236C14.88 7.67436 17.125 7.67436 19.354 7.86236L19.667 7.88836L19.849 8.14836C21.125 9.98136 22.25 11.9244 23.203 13.9454L23.338 14.2314L23.203 14.5174C22.25 16.5384 21.13 18.4814 19.849 20.3144L19.667 20.5744L19.354 20.6004C18.229 20.6944 17.099 20.7414 16 20.7414ZM13.073 19.2934C15.042 19.4444 16.958 19.4444 18.932 19.2934C20.031 17.6844 21.01 15.9914 21.859 14.2304C21.015 12.4704 20.036 10.7774 18.927 9.16736C16.979 9.01636 15.021 9.01636 13.073 9.16736C11.964 10.7764 10.984 12.4694 10.141 14.2304C10.99 15.9904 11.969 17.6834 13.073 19.2934V19.2934Z" fill="#61DBFB"/>
</svg>
