<svg width="32" height="32" viewBox="0 0 32 32" fill="none" xmlns="http://www.w3.org/2000/svg">
<path d="M22.177 22.005C23.338 21.906 24.234 20.885 24.177 19.666C24.114 18.447 23.114 17.469 21.901 17.469H21.817C20.562 17.51 19.578 18.568 19.62 19.828C19.661 20.469 19.921 20.984 20.281 21.364C18.88 24.083 16.786 26.079 13.604 27.76C11.469 28.875 9.21299 29.297 7.01599 28.995C5.17699 28.74 3.73999 27.918 2.85999 26.599C1.54099 24.599 1.42099 22.448 2.52099 20.287C3.32199 18.73 4.52099 17.588 5.31699 17.031C5.11999 16.511 4.87999 15.636 4.75999 14.974C-1.15601 19.209 -0.552011 25.006 1.24499 27.741C2.58399 29.741 5.31699 31.017 8.31199 31.017C9.11499 31.017 9.95299 30.96 10.771 30.756C15.97 29.756 19.902 26.641 22.156 22.048L22.177 22.005ZM29.307 17.011C26.214 13.375 21.656 11.375 16.464 11.375H15.781C15.448 10.64 14.666 10.178 13.786 10.178H13.729C12.469 10.178 11.489 11.261 11.53 12.517C11.573 13.714 12.587 14.714 13.806 14.714H13.906C14.806 14.673 15.583 14.115 15.906 13.313H16.645C19.724 13.313 22.636 14.214 25.297 15.97C27.328 17.307 28.792 19.069 29.609 21.167C30.328 22.88 30.286 24.563 29.546 25.964C28.411 28.156 26.489 29.317 23.958 29.317C22.359 29.317 20.802 28.817 19.999 28.458C19.52 28.854 18.718 29.515 18.139 29.917C19.9 30.713 21.676 31.172 23.395 31.172C27.291 31.172 30.187 28.979 31.286 26.86C32.483 24.464 32.385 20.427 29.327 16.969L29.307 17.011ZM8.65099 22.724C8.69399 23.921 9.70799 24.921 10.932 24.921H11.011C12.292 24.88 13.266 23.822 13.208 22.562C13.208 21.363 12.172 20.363 10.953 20.363H10.869C10.792 20.363 10.672 20.363 10.568 20.406C8.91199 17.609 8.21299 14.609 8.47299 11.374C8.62999 8.937 9.43199 6.822 10.869 5.062C12.068 3.567 14.322 2.822 15.864 2.786C20.177 2.702 21.979 8.082 22.115 10.218L24.115 10.817C23.651 4.265 19.579 0.828003 15.683 0.828003C12.027 0.828003 8.65099 3.484 7.29199 7.38C5.43699 12.579 6.65599 17.568 8.93199 21.568C8.73499 21.823 8.61499 22.287 8.65099 22.724Z" fill="#764ABC"/>
</svg>
