<svg width="50" height="49" viewBox="0 0 50 49" fill="none" xmlns="http://www.w3.org/2000/svg">
<path d="M25.0028 2.10565e-06C11.1887 -0.00562103 0 11.2519 0 25.1467C0 36.1343 6.99922 45.4743 16.7467 48.9044C18.0594 49.2362 17.8583 48.2971 17.8583 47.6561V43.2981C10.2782 44.1922 9.97095 39.1426 9.46263 38.2992C8.43481 36.5335 6.00492 36.0837 6.73109 35.2402C8.45716 34.3461 10.2167 35.4651 12.2556 38.496C13.7303 40.6946 16.6071 40.3235 18.065 39.958C18.3834 38.6366 19.0649 37.4557 20.0034 36.5391C12.1495 35.1221 8.8761 30.2975 8.8761 24.5619C8.8761 21.7784 9.78662 19.2199 11.5741 17.1562C10.4346 13.7542 11.6803 10.8414 11.8478 10.4084C15.0933 10.116 18.4672 12.7476 18.7298 12.9557C20.5731 12.4552 22.679 12.191 25.0363 12.191C27.4048 12.191 29.5163 12.4665 31.3764 12.9726C32.0076 12.489 35.1357 10.2285 38.1522 10.504C38.3142 10.937 39.5319 13.7823 38.4594 17.1393C40.2692 19.2086 41.1909 21.7897 41.1909 24.5787C41.1909 30.3256 37.8952 35.1558 30.019 36.5504C30.6936 37.2182 31.2293 38.0147 31.5947 38.8933C31.9601 39.7719 32.1479 40.715 32.1472 41.6674V47.9935C32.1919 48.4995 32.1472 49 32.9851 49C42.8779 45.643 50 36.2355 50 25.1523C50 11.2519 38.8057 2.10565e-06 25.0028 2.10565e-06V2.10565e-06Z" fill="white"/>
</svg>
