<svg width="146" height="29" viewBox="0 0 146 29" fill="none" xmlns="http://www.w3.org/2000/svg">
<path d="M16.072 3.824C16.12 4.096 16.152 4.288 16.168 4.4C16.2 4.496 16.216 4.632 16.216 4.808C16.216 5.336 16.096 5.832 15.856 6.296C15.632 6.744 15.32 7.064 14.92 7.256C14.6 6.824 14.208 6.456 13.744 6.152C13.28 5.832 12.768 5.576 12.208 5.384C11.664 5.176 11.096 5.024 10.504 4.928C9.912 4.832 9.336 4.784 8.776 4.784C8.216 4.784 7.688 4.832 7.192 4.928C6.712 5.008 6.28 5.128 5.896 5.288C5.528 5.432 5.232 5.616 5.008 5.84C4.8 6.064 4.696 6.32 4.696 6.608C4.744 6.96 4.96 7.32 5.344 7.688C5.728 8.04 6.2 8.392 6.76 8.744C7.32 9.08 7.936 9.416 8.608 9.752C9.296 10.088 9.968 10.408 10.624 10.712C11.44 11.096 12.144 11.456 12.736 11.792C13.328 12.112 13.816 12.472 14.2 12.872C14.584 13.256 14.872 13.696 15.064 14.192C15.256 14.688 15.352 15.288 15.352 15.992C15.352 16.808 15.216 17.576 14.944 18.296C14.672 19 14.272 19.616 13.744 20.144C13.232 20.672 12.608 21.08 11.872 21.368C11.136 21.672 10.312 21.824 9.4 21.824C8.504 21.824 7.536 21.688 6.496 21.416C5.456 21.144 4.48 20.768 3.568 20.288C2.672 19.824 1.92 19.288 1.312 18.68C0.72 18.056 0.424 17.4 0.424 16.712C0.424 16.392 0.512 15.984 0.688 15.488C0.88 14.992 1.216 14.472 1.696 13.928C1.744 14.408 2 14.976 2.464 15.632C2.944 16.288 3.656 16.896 4.6 17.456C5.48 17.968 6.384 18.344 7.312 18.584C8.256 18.808 9.136 18.92 9.952 18.92C10.848 18.92 11.576 18.808 12.136 18.584C12.696 18.36 13.136 18.096 13.456 17.792C13.776 17.472 14 17.152 14.128 16.832C14.256 16.512 14.328 16.256 14.344 16.064C14.328 15.744 14.176 15.44 13.888 15.152C13.616 14.848 13.24 14.56 12.76 14.288C12.296 14 11.752 13.712 11.128 13.424C10.504 13.136 9.856 12.848 9.184 12.56C8.176 12.112 7.304 11.696 6.568 11.312C5.848 10.912 5.248 10.512 4.768 10.112C4.304 9.696 3.96 9.264 3.736 8.816C3.528 8.368 3.424 7.856 3.424 7.28C3.424 6.384 3.696 5.536 4.24 4.736C4.784 3.936 5.568 3.328 6.592 2.912C7.104 2.688 7.648 2.528 8.224 2.432C8.816 2.336 9.392 2.288 9.952 2.288C11.008 2.288 12.04 2.432 13.048 2.72C14.056 3.008 15.064 3.376 16.072 3.824ZM19.8944 20.84C18.9824 20.744 18.2544 20.344 17.7104 19.64C17.1664 18.936 16.8944 18.04 16.8944 16.952C16.8944 16.312 16.9904 15.648 17.1824 14.96C17.3744 14.272 17.6464 13.608 17.9984 12.968C18.3504 12.312 18.7664 11.696 19.2464 11.12C19.7264 10.544 20.2464 10.048 20.8064 9.632C21.6864 8.976 22.5104 8.648 23.2784 8.648C23.7904 8.92 24.2944 9.488 24.7904 10.352C24.8704 10.352 24.9424 10.352 25.0064 10.352C25.0704 10.336 25.1424 10.328 25.2224 10.328C26.0704 10.328 26.4944 11.08 26.4944 12.584C26.4944 13.592 26.3264 14.552 25.9904 15.464C25.6704 16.36 25.2144 17.176 24.6224 17.912C24.0464 18.648 23.3504 19.272 22.5344 19.784C21.7344 20.28 20.8544 20.632 19.8944 20.84ZM21.1184 13.28C20.8464 13.648 20.5904 14.048 20.3504 14.48C20.1104 14.912 19.9024 15.352 19.7264 15.8C19.5504 16.232 19.4144 16.656 19.3184 17.072C19.2224 17.472 19.1744 17.832 19.1744 18.152C19.1744 18.536 19.2384 18.904 19.3664 19.256C19.4944 19.608 19.6384 19.808 19.7984 19.856C20.5184 19.696 21.1744 19.4 21.7664 18.968C22.3744 18.52 22.8944 17.968 23.3264 17.312C23.7744 16.656 24.1184 15.912 24.3584 15.08C24.6144 14.248 24.7424 13.36 24.7424 12.416C24.7424 12 24.7184 11.672 24.6704 11.432C24.6224 11.192 24.5424 10.984 24.4304 10.808C23.7264 11.016 23.0944 11.352 22.5344 11.816C21.9904 12.28 21.5184 12.768 21.1184 13.28ZM25.9041 27.944C25.6801 27.88 25.5521 27.64 25.5201 27.224C25.4561 27.016 25.4081 26.768 25.3761 26.48C25.3601 26.192 25.3521 25.864 25.3521 25.496C25.3521 25.16 25.4081 24.696 25.5201 24.104C25.6321 23.528 25.7841 22.872 25.9761 22.136C26.1841 21.4 26.4321 20.608 26.7201 19.76C27.0081 18.896 27.3281 18.024 27.6801 17.144C28.1121 16.04 28.4881 15.088 28.8081 14.288C29.1281 13.472 29.3921 12.768 29.6001 12.176C29.8241 11.584 30.0001 11.096 30.1281 10.712C30.2721 10.328 30.3841 10 30.4641 9.728C30.5281 9.536 30.6241 9.304 30.7521 9.032C30.8801 8.76 31.0241 8.488 31.1841 8.216C31.3601 7.928 31.5361 7.664 31.7121 7.424C31.8881 7.168 32.0481 6.976 32.1921 6.848C32.7521 6.928 33.2801 7.072 33.7761 7.28C34.2721 7.488 34.5761 7.688 34.6881 7.88C34.4641 8.088 34.2081 8.416 33.9201 8.864C33.6321 9.296 33.3521 9.776 33.0801 10.304C32.8081 10.816 32.5601 11.344 32.3361 11.888C32.1121 12.432 31.9441 12.912 31.8321 13.328C31.9921 13.056 32.2001 12.76 32.4561 12.44C32.7121 12.12 33.1041 11.68 33.6321 11.12C34.2241 10.512 34.7761 10.048 35.2881 9.728C35.8161 9.392 36.2721 9.224 36.6561 9.224C37.2641 9.224 37.7601 9.392 38.1441 9.728C38.5441 10.064 38.7441 10.496 38.7441 11.024C38.7441 12.176 38.5521 13.32 38.1681 14.456C37.7841 15.576 37.2321 16.592 36.5121 17.504C36.2401 17.856 35.9201 18.192 35.5521 18.512C35.1841 18.832 34.8001 19.12 34.4001 19.376C34.0001 19.616 33.6081 19.808 33.2241 19.952C32.8401 20.096 32.4961 20.168 32.1921 20.168C31.9041 20.168 31.6481 20.112 31.4241 20C31.2161 19.872 31.0721 19.72 30.9921 19.544C31.6161 19.176 32.2241 18.664 32.8161 18.008C33.4081 17.352 33.9521 16.6 34.4481 15.752C34.9601 14.888 35.4001 13.96 35.7681 12.968C36.1521 11.976 36.4401 10.968 36.6321 9.944C36.0241 10.264 35.4721 10.616 34.9761 11C34.4961 11.368 34.0161 11.856 33.5361 12.464C32.9601 13.168 32.5041 13.736 32.1681 14.168C31.8321 14.6 31.5521 14.968 31.3281 15.272C31.1201 15.576 30.9441 15.864 30.8001 16.136C30.6721 16.392 30.5281 16.712 30.3681 17.096C30.1441 17.608 29.8801 18.288 29.5761 19.136C29.2881 19.968 28.9841 20.904 28.6641 21.944C28.3601 22.984 28.0481 24.088 27.7281 25.256C27.4241 26.44 27.1281 27.616 26.8401 28.784C26.6641 28.752 26.5121 28.624 26.3841 28.4C26.2561 28.256 26.1601 28.152 26.0961 28.088C26.0481 28.024 25.9841 27.976 25.9041 27.944ZM39.5853 19.592C39.5853 19.032 39.6413 18.376 39.7533 17.624C39.8653 16.856 40.0253 16.04 40.2333 15.176C40.4573 14.312 40.7133 13.408 41.0013 12.464C41.3053 11.52 41.6413 10.576 42.0093 9.632C42.3293 8.784 42.6973 7.928 43.1133 7.064C43.5453 6.2 44.0093 5.352 44.5053 4.52C45.0013 3.688 45.5133 2.896 46.0413 2.144C46.5853 1.392 47.1293 0.704 47.6733 0.079999C47.9293 0.079999 48.2013 0.111999 48.4893 0.175999C48.7933 0.239999 49.0813 0.327999 49.3533 0.439999C49.6413 0.535999 49.8973 0.656 50.1213 0.8C50.3613 0.944 50.5533 1.088 50.6973 1.232C49.4973 2.464 48.4173 3.712 47.4573 4.976C46.4973 6.224 45.7373 7.4 45.1773 8.504C44.8733 9.112 44.5933 9.68 44.3372 10.208C44.0973 10.736 43.8733 11.264 43.6653 11.792C43.4573 12.304 43.2653 12.824 43.0893 13.352C42.9293 13.864 42.7773 14.408 42.6333 14.984C45.7053 11.064 47.9853 9.104 49.4733 9.104C49.8893 9.104 50.3373 9.24 50.8173 9.512C51.2973 9.784 51.7213 10.152 52.0893 10.616C51.5933 11.16 51.0813 11.816 50.5533 12.584C50.0253 13.352 49.5373 14.128 49.0893 14.912C48.6573 15.68 48.2973 16.4 48.0093 17.072C47.7373 17.728 47.6013 18.216 47.6013 18.536C47.6013 18.696 47.6253 18.808 47.6733 18.872C47.7213 18.92 47.8253 18.944 47.9853 18.944C48.2253 18.944 48.4173 18.912 48.5613 18.848C48.7053 18.784 48.7933 18.752 48.8253 18.752C48.9053 18.88 48.9533 18.968 48.9693 19.016C48.9853 19.064 48.9933 19.104 48.9933 19.136C48.9933 19.2 48.8973 19.296 48.7053 19.424C48.5133 19.536 48.2813 19.656 48.0093 19.784C47.7533 19.896 47.4973 20 47.2413 20.096C46.9853 20.192 46.7933 20.24 46.6653 20.24C46.5053 20.24 46.3453 20.192 46.1853 20.096C46.0253 20.016 45.8813 19.904 45.7533 19.76C45.6413 19.616 45.5453 19.456 45.4653 19.28C45.4013 19.104 45.3693 18.92 45.3693 18.728C45.3693 18.488 45.4333 18.136 45.5613 17.672C45.7053 17.192 45.8973 16.64 46.1373 16.016C46.3773 15.376 46.6653 14.68 47.0013 13.928C47.3373 13.176 47.6973 12.408 48.0813 11.624C48.0813 11.56 48.0493 11.528 47.9853 11.528C47.9373 11.528 47.8093 11.592 47.6013 11.72C47.4093 11.848 47.2253 11.976 47.0493 12.104C46.4733 12.536 45.8893 13.072 45.2973 13.712C44.7213 14.336 44.1533 15.024 43.5933 15.776C43.0493 16.528 42.5293 17.328 42.0333 18.176C41.5533 19.008 41.1373 19.848 40.7853 20.696C40.7373 20.808 40.6653 20.912 40.5693 21.008C40.4733 21.104 40.3933 21.152 40.3293 21.152C40.2813 21.152 40.2093 21.096 40.1133 20.984C40.0333 20.872 39.9533 20.728 39.8733 20.552C39.8093 20.392 39.7453 20.224 39.6813 20.048C39.6173 19.872 39.5853 19.72 39.5853 19.592ZM52.0317 18.392C52.0317 18.248 52.0397 18.072 52.0557 17.864C52.0877 17.64 52.1357 17.352 52.1997 17C52.2637 16.632 52.3437 16.192 52.4397 15.68C52.5517 15.168 52.6877 14.552 52.8477 13.832C52.8797 13.672 52.9517 13.416 53.0637 13.064C53.1757 12.712 53.3197 12.344 53.4957 11.96C53.6877 11.56 53.9117 11.176 54.1677 10.808C54.4397 10.44 54.7597 10.168 55.1277 9.992C55.3997 10.056 55.7597 10.224 56.2077 10.496C56.6557 10.752 57.0397 11.112 57.3597 11.576C56.9917 11.992 56.6797 12.408 56.4237 12.824C56.1837 13.24 55.9597 13.672 55.7517 14.12C55.5597 14.568 55.3757 15.032 55.1997 15.512C55.0397 15.992 54.8557 16.496 54.6477 17.024C54.4717 17.472 54.3117 17.936 54.1677 18.416C54.0237 18.88 53.9437 19.288 53.9277 19.64C53.9277 19.928 53.9197 20.128 53.9037 20.24C53.9037 20.368 53.8637 20.432 53.7837 20.432C53.7197 20.432 53.5917 20.392 53.3997 20.312C53.2077 20.232 53.0077 20.112 52.7997 19.952C52.6077 19.776 52.4317 19.56 52.2717 19.304C52.1117 19.048 52.0317 18.744 52.0317 18.392ZM56.6157 7.976C56.6157 7.88 56.6397 7.736 56.6877 7.544C56.6077 7.464 56.5357 7.344 56.4717 7.184C56.4237 7.024 56.3997 6.88 56.3997 6.752C56.3997 6.608 56.4157 6.416 56.4477 6.176C56.4957 5.92 56.5517 5.648 56.6157 5.36C56.6797 5.072 56.7597 4.776 56.8557 4.472C56.9517 4.152 57.0477 3.864 57.1437 3.608C57.3357 3.608 57.5677 3.664 57.8397 3.776C58.1277 3.872 58.4157 4.008 58.7037 4.184C58.9917 4.344 59.2557 4.528 59.4957 4.736C59.7357 4.928 59.9197 5.112 60.0477 5.288C59.8717 5.464 59.6397 5.712 59.3517 6.032C59.0637 6.336 58.7837 6.664 58.5117 7.016C58.2397 7.352 57.9917 7.672 57.7677 7.976C57.5437 8.28 57.3997 8.496 57.3357 8.624C57.1437 8.592 56.9757 8.512 56.8317 8.384C56.6877 8.24 56.6157 8.104 56.6157 7.976ZM65.9596 10.304C66.1196 10.304 66.3036 10.336 66.5116 10.4C66.7356 10.448 66.9356 10.52 67.1116 10.616C67.2876 10.696 67.4316 10.784 67.5436 10.88C67.6716 10.976 67.7356 11.064 67.7356 11.144C67.4156 11.816 67.1196 12.496 66.8476 13.184C66.5756 13.856 66.3436 14.504 66.1516 15.128C65.9596 15.752 65.8076 16.336 65.6956 16.88C65.5996 17.424 65.5516 17.896 65.5516 18.296C65.5516 18.744 65.5996 19.12 65.6956 19.424C65.7916 19.712 65.9516 19.92 66.1756 20.048C65.9836 20.176 65.7356 20.28 65.4316 20.36C65.1276 20.44 64.8556 20.48 64.6156 20.48C63.7516 20.48 63.3196 19.888 63.3196 18.704C63.3196 17.792 63.6236 16.544 64.2316 14.96C63.9116 15.696 63.5436 16.392 63.1276 17.048C62.7116 17.688 62.2876 18.256 61.8556 18.752C61.4236 19.248 60.9836 19.656 60.5356 19.976C60.1036 20.28 59.7036 20.464 59.3356 20.528C58.7436 20.496 58.2636 20.216 57.8956 19.688C57.5276 19.144 57.3436 18.456 57.3436 17.624C57.3436 16.728 57.5356 15.784 57.9196 14.792C58.3036 13.8 58.7916 12.88 59.3836 12.032C59.9916 11.184 60.6476 10.48 61.3516 9.92C62.0556 9.344 62.7356 9.04 63.3916 9.008C63.5516 9.056 63.7276 9.152 63.9196 9.296C64.1276 9.44 64.3196 9.608 64.4956 9.8C64.6876 9.992 64.8476 10.192 64.9756 10.4C65.1036 10.592 65.1756 10.76 65.1916 10.904C64.5516 11 63.8876 11.312 63.1996 11.84C62.5276 12.368 61.9116 13.008 61.3516 13.76C60.8076 14.496 60.3596 15.288 60.0076 16.136C59.6556 16.984 59.4796 17.776 59.4796 18.512C59.4796 18.816 59.5916 19.008 59.8156 19.088C60.2796 18.992 60.8156 18.6 61.4236 17.912C62.0316 17.208 62.7676 16.128 63.6316 14.672C63.7916 14.384 63.9676 14.064 64.1596 13.712C64.3676 13.36 64.5756 12.992 64.7836 12.608C64.9916 12.224 65.1916 11.84 65.3836 11.456C65.5916 11.056 65.7836 10.672 65.9596 10.304ZM76.9038 21.824C75.9918 21.552 75.3758 21.288 75.0558 21.032C74.7358 20.792 74.5758 20.456 74.5758 20.024C74.5758 19.544 74.6878 18.872 74.9118 18.008C75.1358 17.128 75.4238 16.152 75.7758 15.08C76.1438 14.008 76.5598 12.888 77.0238 11.72C77.4878 10.552 77.9598 9.432 78.4398 8.36C78.9198 7.288 79.3838 6.312 79.8318 5.432C80.2958 4.536 80.7038 3.84 81.0558 3.344L80.8878 2.336C81.1118 2.336 81.4238 2.392 81.8238 2.504C82.2238 2.616 82.6238 2.752 83.0238 2.912C83.4398 3.072 83.7998 3.24 84.1038 3.416C84.4238 3.576 84.5998 3.712 84.6318 3.824C84.5518 4.208 84.4878 4.792 84.4398 5.576C84.3918 6.344 84.3678 7.168 84.3678 8.048C84.3678 9.792 84.4318 11.504 84.5598 13.184C84.7038 14.848 85.0238 16.544 85.5198 18.272C85.7758 16.992 86.0477 15.72 86.3358 14.456C86.6398 13.176 86.9518 11.96 87.2718 10.808C87.5918 9.64 87.9118 8.56 88.2318 7.568C88.5518 6.576 88.8558 5.712 89.1438 4.976C89.4478 4.224 89.7278 3.64 89.9838 3.224C90.2398 2.792 90.4718 2.56 90.6798 2.528C90.8558 2.56 91.0478 2.632 91.2558 2.744C91.4638 2.84 91.6638 2.96 91.8558 3.104C92.0478 3.248 92.2238 3.408 92.3838 3.584C92.5438 3.76 92.6718 3.936 92.7678 4.112C92.2558 4.32 91.7438 4.808 91.2318 5.576C90.7358 6.344 90.2558 7.28 89.7918 8.384C89.3438 9.472 88.9198 10.656 88.5198 11.936C88.1358 13.216 87.7918 14.48 87.4878 15.728C87.1998 16.96 86.9678 18.104 86.7918 19.16C86.6318 20.216 86.5438 21.064 86.5278 21.704C86.5278 21.736 86.5358 21.76 86.5518 21.776C86.5038 21.792 86.4478 21.8 86.3838 21.8C86.3358 21.8 86.2878 21.8 86.2398 21.8C85.5038 21.8 84.8478 21.704 84.2718 21.512C83.7118 21.336 83.3438 21.08 83.1678 20.744C82.8318 19.4 82.5518 18.104 82.3278 16.856C82.1038 15.608 81.9118 14.36 81.7518 13.112C81.6078 11.864 81.4878 10.608 81.3918 9.344C81.3118 8.064 81.2478 6.728 81.1998 5.336C80.8958 5.816 80.5758 6.448 80.2398 7.232C79.9038 8 79.5758 8.848 79.2558 9.776C78.9358 10.704 78.6238 11.68 78.3198 12.704C78.0318 13.728 77.7758 14.728 77.5518 15.704C77.3278 16.68 77.1518 17.608 77.0238 18.488C76.8958 19.352 76.8318 20.104 76.8318 20.744C76.8318 21.08 76.8318 21.32 76.8318 21.464C76.8478 21.608 76.8718 21.728 76.9038 21.824ZM98.7486 10.304C98.9086 10.304 99.0926 10.336 99.3006 10.4C99.5246 10.448 99.7246 10.52 99.9006 10.616C100.077 10.696 100.221 10.784 100.333 10.88C100.461 10.976 100.525 11.064 100.525 11.144C100.205 11.816 99.9086 12.496 99.6366 13.184C99.3646 13.856 99.1326 14.504 98.9406 15.128C98.7486 15.752 98.5966 16.336 98.4846 16.88C98.3886 17.424 98.3406 17.896 98.3406 18.296C98.3406 18.744 98.3886 19.12 98.4846 19.424C98.5806 19.712 98.7406 19.92 98.9646 20.048C98.7726 20.176 98.5246 20.28 98.2206 20.36C97.9166 20.44 97.6446 20.48 97.4046 20.48C96.5406 20.48 96.1086 19.888 96.1086 18.704C96.1086 17.792 96.4126 16.544 97.0206 14.96C96.7006 15.696 96.3326 16.392 95.9166 17.048C95.5006 17.688 95.0766 18.256 94.6446 18.752C94.2126 19.248 93.7726 19.656 93.3246 19.976C92.8926 20.28 92.4926 20.464 92.1246 20.528C91.5326 20.496 91.0526 20.216 90.6846 19.688C90.3166 19.144 90.1326 18.456 90.1326 17.624C90.1326 16.728 90.3246 15.784 90.7086 14.792C91.0926 13.8 91.5806 12.88 92.1726 12.032C92.7806 11.184 93.4366 10.48 94.1406 9.92C94.8446 9.344 95.5246 9.04 96.1806 9.008C96.3406 9.056 96.5166 9.152 96.7086 9.296C96.9166 9.44 97.1086 9.608 97.2846 9.8C97.4766 9.992 97.6366 10.192 97.7646 10.4C97.8926 10.592 97.9646 10.76 97.9806 10.904C97.3406 11 96.6766 11.312 95.9886 11.84C95.3166 12.368 94.7006 13.008 94.1406 13.76C93.5966 14.496 93.1486 15.288 92.7966 16.136C92.4446 16.984 92.2686 17.776 92.2686 18.512C92.2686 18.816 92.3806 19.008 92.6046 19.088C93.0686 18.992 93.6046 18.6 94.2126 17.912C94.8206 17.208 95.5566 16.128 96.4206 14.672C96.5806 14.384 96.7566 14.064 96.9486 13.712C97.1566 13.36 97.3646 12.992 97.5726 12.608C97.7806 12.224 97.9806 11.84 98.1726 11.456C98.3806 11.056 98.5726 10.672 98.7486 10.304ZM110.022 10.448C110.006 10.752 109.95 11.072 109.854 11.408C109.774 11.728 109.67 12.024 109.542 12.296C109.414 12.552 109.278 12.768 109.134 12.944C108.99 13.12 108.854 13.208 108.726 13.208C108.55 13.192 108.446 13.072 108.414 12.848C108.414 12.8 108.43 12.728 108.462 12.632C108.51 12.52 108.558 12.4 108.606 12.272C108.654 12.144 108.694 12.016 108.726 11.888C108.774 11.76 108.798 11.648 108.798 11.552C108.798 11.328 108.742 11.144 108.63 11C108.534 10.84 108.398 10.76 108.222 10.76C107.582 10.76 107.094 11.16 106.758 11.96C106.422 12.76 106.254 13.936 106.254 15.488C106.254 15.648 106.262 15.744 106.278 15.776C106.614 15.76 106.91 15.752 107.166 15.752C107.438 15.736 107.702 15.728 107.958 15.728C107.974 15.76 107.982 15.824 107.982 15.92C107.982 16.064 107.95 16.168 107.886 16.232C107.518 16.312 107.222 16.384 106.998 16.448C106.79 16.496 106.63 16.544 106.518 16.592C106.406 16.64 106.334 16.696 106.302 16.76C106.286 16.808 106.278 16.88 106.278 16.976C106.278 17.104 106.278 17.232 106.278 17.36C106.294 17.488 106.302 17.648 106.302 17.84C106.302 19.184 105.934 20.264 105.198 21.08C104.478 21.896 103.47 22.368 102.174 22.496C101.95 22.48 101.718 22.416 101.478 22.304C101.238 22.192 101.006 22.048 100.782 21.872C100.574 21.696 100.39 21.496 100.23 21.272C100.07 21.064 99.9581 20.848 99.8941 20.624C99.8941 20.016 100.022 19.44 100.278 18.896C100.534 18.336 100.878 17.848 101.31 17.432C101.758 17 102.278 16.656 102.87 16.4C103.478 16.128 104.134 15.968 104.838 15.92C104.838 15.52 104.798 15.128 104.718 14.744C104.638 14.36 104.55 13.992 104.454 13.64C104.374 13.272 104.294 12.92 104.214 12.584C104.134 12.232 104.094 11.888 104.094 11.552C104.094 11.12 104.182 10.696 104.358 10.28C104.534 9.848 104.766 9.456 105.054 9.104C105.342 8.736 105.678 8.424 106.062 8.168C106.446 7.912 106.846 7.736 107.262 7.64C107.438 7.688 107.67 7.832 107.958 8.072C108.262 8.296 108.558 8.552 108.846 8.84C109.134 9.128 109.39 9.424 109.614 9.728C109.838 10.016 109.974 10.256 110.022 10.448ZM102.102 21.392C102.486 21.232 102.846 21 103.182 20.696C103.534 20.392 103.838 20.048 104.094 19.664C104.35 19.28 104.55 18.872 104.694 18.44C104.854 18.008 104.934 17.584 104.934 17.168C104.614 17.216 104.262 17.368 103.878 17.624C103.494 17.864 103.134 18.16 102.798 18.512C102.462 18.848 102.182 19.2 101.958 19.568C101.734 19.936 101.622 20.256 101.622 20.528C101.622 20.88 101.782 21.168 102.102 21.392ZM118.319 10.448C118.303 10.752 118.247 11.072 118.151 11.408C118.071 11.728 117.967 12.024 117.839 12.296C117.711 12.552 117.575 12.768 117.431 12.944C117.287 13.12 117.151 13.208 117.023 13.208C116.847 13.192 116.743 13.072 116.711 12.848C116.711 12.8 116.727 12.728 116.759 12.632C116.807 12.52 116.855 12.4 116.903 12.272C116.951 12.144 116.991 12.016 117.023 11.888C117.071 11.76 117.095 11.648 117.095 11.552C117.095 11.328 117.039 11.144 116.927 11C116.831 10.84 116.695 10.76 116.519 10.76C115.879 10.76 115.391 11.16 115.055 11.96C114.719 12.76 114.551 13.936 114.551 15.488C114.551 15.648 114.559 15.744 114.575 15.776C114.911 15.76 115.207 15.752 115.463 15.752C115.735 15.736 115.999 15.728 116.255 15.728C116.271 15.76 116.279 15.824 116.279 15.92C116.279 16.064 116.247 16.168 116.183 16.232C115.815 16.312 115.519 16.384 115.295 16.448C115.087 16.496 114.927 16.544 114.815 16.592C114.703 16.64 114.631 16.696 114.599 16.76C114.583 16.808 114.575 16.88 114.575 16.976C114.575 17.104 114.575 17.232 114.575 17.36C114.591 17.488 114.599 17.648 114.599 17.84C114.599 19.184 114.231 20.264 113.495 21.08C112.775 21.896 111.767 22.368 110.471 22.496C110.247 22.48 110.015 22.416 109.775 22.304C109.535 22.192 109.303 22.048 109.079 21.872C108.871 21.696 108.687 21.496 108.527 21.272C108.367 21.064 108.255 20.848 108.191 20.624C108.191 20.016 108.319 19.44 108.575 18.896C108.831 18.336 109.175 17.848 109.607 17.432C110.055 17 110.575 16.656 111.167 16.4C111.775 16.128 112.431 15.968 113.135 15.92C113.135 15.52 113.095 15.128 113.015 14.744C112.935 14.36 112.847 13.992 112.751 13.64C112.671 13.272 112.591 12.92 112.511 12.584C112.431 12.232 112.391 11.888 112.391 11.552C112.391 11.12 112.479 10.696 112.655 10.28C112.831 9.848 113.063 9.456 113.351 9.104C113.639 8.736 113.975 8.424 114.359 8.168C114.743 7.912 115.143 7.736 115.559 7.64C115.735 7.688 115.967 7.832 116.255 8.072C116.559 8.296 116.855 8.552 117.143 8.84C117.431 9.128 117.687 9.424 117.911 9.728C118.135 10.016 118.271 10.256 118.319 10.448ZM110.399 21.392C110.783 21.232 111.143 21 111.479 20.696C111.831 20.392 112.135 20.048 112.391 19.664C112.647 19.28 112.847 18.872 112.991 18.44C113.151 18.008 113.231 17.584 113.231 17.168C112.911 17.216 112.559 17.368 112.175 17.624C111.791 17.864 111.431 18.16 111.095 18.512C110.759 18.848 110.479 19.2 110.255 19.568C110.031 19.936 109.919 20.256 109.919 20.528C109.919 20.88 110.079 21.168 110.399 21.392ZM126.928 10.064C126.864 11.056 126.688 11.912 126.4 12.632C126.112 13.336 125.696 13.96 125.152 14.504C124.624 15.032 123.976 15.512 123.208 15.944C122.44 16.376 121.544 16.792 120.52 17.192C120.52 17.288 120.512 17.392 120.496 17.504C120.496 17.6 120.496 17.704 120.496 17.816C120.496 18.024 120.512 18.24 120.544 18.464C120.576 18.688 120.632 18.896 120.712 19.088C120.792 19.28 120.904 19.44 121.048 19.568C121.192 19.68 121.376 19.736 121.6 19.736C122.032 19.736 122.456 19.64 122.872 19.448C123.288 19.256 123.68 19.024 124.048 18.752C124.432 18.464 124.784 18.16 125.104 17.84C125.44 17.504 125.736 17.2 125.992 16.928C126.152 17.072 126.288 17.208 126.4 17.336C125.68 18.296 124.888 19.096 124.024 19.736C123.176 20.36 122.368 20.76 121.6 20.936C120.496 20.808 119.632 20.408 119.008 19.736C118.4 19.048 118.096 18.224 118.096 17.264C118.096 16.608 118.184 15.944 118.36 15.272C118.552 14.584 118.808 13.928 119.128 13.304C119.464 12.664 119.848 12.064 120.28 11.504C120.728 10.944 121.2 10.456 121.696 10.04C122.208 9.624 122.728 9.296 123.256 9.056C123.8 8.816 124.336 8.696 124.864 8.696C125.6 8.792 126.288 9.248 126.928 10.064ZM125.272 10.856C124.84 10.92 124.392 11.096 123.928 11.384C123.464 11.672 123.024 12.056 122.608 12.536C122.208 13.016 121.84 13.576 121.504 14.216C121.168 14.856 120.904 15.544 120.712 16.28C121.992 15.64 123.056 14.856 123.904 13.928C124.752 12.984 125.208 11.96 125.272 10.856ZM127.463 19.52C127.543 19.056 127.679 18.448 127.871 17.696C128.079 16.928 128.319 16.12 128.591 15.272C128.863 14.408 129.151 13.544 129.455 12.68C129.759 11.816 130.055 11.04 130.343 10.352C130.551 9.856 130.735 9.472 130.895 9.2C131.055 8.912 131.231 8.672 131.423 8.48C131.647 8.512 131.879 8.568 132.119 8.648C132.359 8.728 132.591 8.824 132.815 8.936C133.039 9.048 133.239 9.168 133.415 9.296C133.591 9.408 133.727 9.52 133.823 9.632C133.391 10.144 133.007 10.728 132.671 11.384C132.351 12.04 132.023 12.88 131.687 13.904C132.551 13.136 133.311 12.4 133.967 11.696C134.639 10.992 135.263 10.208 135.839 9.344C135.935 9.264 136.103 9.224 136.343 9.224C136.567 9.224 136.783 9.264 136.991 9.344C137.199 9.408 137.343 9.504 137.423 9.632C137.135 10.4 136.991 11.16 136.991 11.912C136.991 12.616 137.095 13.144 137.303 13.496C137.287 13.592 137.175 13.776 136.967 14.048C136.775 14.32 136.559 14.576 136.319 14.816C135.887 14.592 135.503 14.288 135.167 13.904C134.831 13.504 134.583 13.072 134.423 12.608C133.671 13.136 133.031 13.656 132.503 14.168C131.975 14.664 131.519 15.224 131.135 15.848C130.767 16.456 130.447 17.16 130.175 17.96C129.919 18.76 129.671 19.712 129.431 20.816C129.287 20.8 129.111 20.744 128.903 20.648C128.711 20.568 128.511 20.464 128.303 20.336C128.111 20.208 127.935 20.072 127.775 19.928C127.615 19.784 127.511 19.648 127.463 19.52ZM137.743 18.392C137.743 18.248 137.751 18.072 137.767 17.864C137.799 17.64 137.847 17.352 137.911 17C137.975 16.632 138.055 16.192 138.151 15.68C138.263 15.168 138.399 14.552 138.559 13.832C138.591 13.672 138.663 13.416 138.775 13.064C138.887 12.712 139.031 12.344 139.207 11.96C139.399 11.56 139.623 11.176 139.879 10.808C140.151 10.44 140.471 10.168 140.839 9.992C141.111 10.056 141.471 10.224 141.919 10.496C142.367 10.752 142.751 11.112 143.071 11.576C142.703 11.992 142.391 12.408 142.135 12.824C141.895 13.24 141.671 13.672 141.463 14.12C141.271 14.568 141.087 15.032 140.911 15.512C140.751 15.992 140.567 16.496 140.359 17.024C140.183 17.472 140.023 17.936 139.879 18.416C139.735 18.88 139.655 19.288 139.639 19.64C139.639 19.928 139.631 20.128 139.615 20.24C139.615 20.368 139.575 20.432 139.495 20.432C139.431 20.432 139.303 20.392 139.111 20.312C138.919 20.232 138.719 20.112 138.511 19.952C138.319 19.776 138.143 19.56 137.983 19.304C137.823 19.048 137.743 18.744 137.743 18.392ZM142.327 7.976C142.327 7.88 142.351 7.736 142.399 7.544C142.319 7.464 142.247 7.344 142.183 7.184C142.135 7.024 142.111 6.88 142.111 6.752C142.111 6.608 142.127 6.416 142.159 6.176C142.207 5.92 142.263 5.648 142.327 5.36C142.391 5.072 142.471 4.776 142.567 4.472C142.663 4.152 142.759 3.864 142.855 3.608C143.047 3.608 143.279 3.664 143.551 3.776C143.839 3.872 144.127 4.008 144.415 4.184C144.703 4.344 144.967 4.528 145.207 4.736C145.447 4.928 145.631 5.112 145.759 5.288C145.583 5.464 145.351 5.712 145.063 6.032C144.775 6.336 144.495 6.664 144.223 7.016C143.951 7.352 143.703 7.672 143.479 7.976C143.255 8.28 143.111 8.496 143.047 8.624C142.855 8.592 142.687 8.512 142.543 8.384C142.399 8.24 142.327 8.104 142.327 7.976Z" fill="white"/>
</svg>
