<svg width="60" height="60" viewBox="0 0 60 60" fill="none" xmlns="http://www.w3.org/2000/svg">
<path fill-rule="evenodd" clip-rule="evenodd" d="M13.668 35.0177C13.4477 33.381 13.3333 31.7053 13.3333 30C13.3333 28.274 13.4503 26.5783 13.676 24.9223H7.22067C6.858 26.557 6.66667 28.2563 6.66667 30C6.66667 31.7227 6.85334 33.4013 7.20734 35.0177H13.668ZM15.211 41.6843H9.79834C12.17 45.7757 15.7487 49.08 20.047 51.1103C18.005 48.3083 16.361 45.1303 15.211 41.6843ZM22.475 41.6843H37.525C35.7733 45.5713 33.175 48.9013 30 51.3727C26.825 48.9013 24.2267 45.5713 22.475 41.6843ZM39.5673 35.0177H20.4327C20.1487 33.394 20 31.7163 20 30C20 28.2623 20.1523 26.5647 20.4433 24.9223H39.5567C39.8477 26.5647 40 28.2623 40 30C40 31.7163 39.8513 33.394 39.5673 35.0177ZM44.789 41.6843C43.639 45.1303 41.995 48.308 39.953 51.1103C44.2513 49.08 47.83 45.7757 50.2017 41.6843H44.789ZM52.7927 35.0177H46.332C46.5523 33.381 46.6667 31.7053 46.6667 30C46.6667 28.274 46.5497 26.5783 46.324 24.9223H52.7793C53.142 26.557 53.3333 28.2563 53.3333 30C53.3333 31.7227 53.1467 33.4013 52.7927 35.0177ZM30 8.62733C26.8413 11.086 24.2537 14.3947 22.5023 18.2557H37.4977C35.7463 14.3947 33.1587 11.086 30 8.62733ZM44.769 18.2557H50.1667C47.795 14.192 44.2303 10.91 39.953 8.88967C41.983 11.6757 43.62 14.8327 44.769 18.2557ZM9.83334 18.2557H15.231C16.38 14.8327 18.017 11.6757 20.047 8.88967C15.7697 10.91 12.205 14.192 9.83334 18.2557ZM30 0C46.5687 0 60 13.4313 60 30C60 46.5687 46.5687 60 30 60C13.4313 60 0 46.5687 0 30C0 13.4313 13.4313 0 30 0Z" fill="white"/>
</svg>
