<svg xmlns="http://www.w3.org/2000/svg" viewBox="0 0 19.7 33"><defs><style>.cls-1{fill:none;}.cls-1,.cls-2{stroke:#000;stroke-miterlimit:10; stroke-width:1.5px}.cls-2{fill:#000;stroke-width:1px;}</style></defs><g id="Calque_2" data-name="Calque 2"><g id="Door"><path class="cls-1" d="M17.2,32.5H2A1.54,1.54,0,0,1,.5,31V2A1.54,1.54,0,0,1,2,.5H17.2A1.53,1.53,0,0,1,18.73,2c.29,4.33.46,8.91.47,13.72,0,5.36-.16,10.45-.47,15.22A1.59,1.59,0,0,1,17.2,32.5Z"/><path class="cls-1" d="M.8,1.52,12.09,4.65A2.58,2.58,0,0,1,14,7.15L13.9,25.51a2.58,2.58,0,0,1-1.57,2.36l-11.26,4"/><circle class="cls-2" cx="11.77" cy="17.08" r="0.66"/></g></g></svg>