<svg xmlns="http://www.w3.org/2000/svg" viewBox="0 0 33.7 33.7"><defs><style>.cls-1,.cls-2{fill:none;}.cls-1{stroke:#E06ACE;stroke-miterlimit:10; stroke-width:2px}.cls-2{stroke:#E06ACE;stroke-linecap:round;stroke-linejoin:round;stroke-width:2px;}</style></defs><g id="Calque_2" data-name="Calque 2"><g id="After_Effects" data-name="After Effects"><path class="cls-1" d="M10.22.91,23.29.5a9.62,9.62,0,0,1,9.91,9.61V23.59a9.62,9.62,0,0,1-9.61,9.61H10.11A9.62,9.62,0,0,1,.5,23.29L.91,10.22A9.62,9.62,0,0,1,10.22.91Z"/><path class="cls-2" d="M11.85,12a3,3,0,0,1,3-3h3v6h-3a3,3,0,0,1-3-3Z"/><path class="cls-2" d="M17.85,9h3A2.88,2.88,0,0,1,22,9.24a3,3,0,0,1,1,.65,2.9,2.9,0,0,1,.65,1A3,3,0,0,1,23.85,12a3.06,3.06,0,0,1-.23,1.15A3,3,0,0,1,22,14.78a3.06,3.06,0,0,1-1.15.23h-3Z"/><path class="cls-2" d="M17.85,18a3,3,0,0,1,.23-1.15,3,3,0,0,1,1.62-1.62A2.81,2.81,0,0,1,20.85,15a2.88,2.88,0,0,1,1.15.23,3,3,0,0,1,1,.65,2.9,2.9,0,0,1,.65,1A3,3,0,0,1,23.85,18a3.06,3.06,0,0,1-.23,1.15A3,3,0,0,1,22,20.78a3.06,3.06,0,0,1-1.15.23,3,3,0,0,1-1.15-.23,2.9,2.9,0,0,1-1-.65,3,3,0,0,1-.65-1A3.06,3.06,0,0,1,17.85,18Z"/><path class="cls-2" d="M11.85,24a3,3,0,0,1,3-3h3v3a3,3,0,0,1-5.12,2.12A3,3,0,0,1,11.85,24Z"/><path class="cls-2" d="M11.85,18a3,3,0,0,1,3-3h3v6h-3a3,3,0,0,1-3-3Z"/></g></g></svg>