<svg xmlns="http://www.w3.org/2000/svg" viewBox="0 0 17.73 23.17"><defs><style>.cls-1{fill:none;stroke:#000;stroke-miterlimit:10;}</style></defs><g id="Calque_2" data-name="Calque 2"><g id="Light_Off" data-name="Light Off"><g id="Bulb"><path class="cls-1" d="M17.23,8.86c0,3.38-2.83,6-4.91,8.44-.77.92-2.22.92-3.45.92a7.18,7.18,0,0,1-3.49-.94h0C3.16,14.85.5,12.22.5,8.86a8.37,8.37,0,0,1,16.73,0Z"/><path class="cls-1" d="M12.59,17.3a5.56,5.56,0,0,1,.68,2.64.57.57,0,0,0,0,.13,2.71,2.71,0,0,1-2.38,2.48,14.8,14.8,0,0,1-1.71.12,15.45,15.45,0,0,1-1.86-.09A2.68,2.68,0,0,1,4.9,20v0a10,10,0,0,1,.47-2.66h0a7.44,7.44,0,0,0,7.21,0Z"/></g><g id="Inside"><line class="cls-1" x1="8.87" y1="13" x2="8.87" y2="18.22"/><line class="cls-1" x1="13.27" y1="8.91" x2="8.87" y2="13"/><line class="cls-1" x1="4.59" y1="9.04" x2="8.87" y2="13"/></g></g></g></svg>