<svg xmlns="http://www.w3.org/2000/svg" viewBox="0 0 26.57 27.23"><defs><style>.cls-1{fill:none;stroke:#fff;stroke-miterlimit:10;}</style></defs><g id="Calque_2" data-name="Calque 2"><g id="Light_On" data-name="Light On"><g id="Bulb"><path class="cls-1" d="M21.9,12.92c0,3.38-2.84,5.94-4.91,8.44-.77.92-2.22.92-3.45.92a7.18,7.18,0,0,1-3.49-.94h0c-2.21-2.44-4.87-5.06-4.87-8.42a8.37,8.37,0,0,1,16.73,0Z"/><path class="cls-1" d="M17.26,21.36A5.49,5.49,0,0,1,17.93,24v.14a2.7,2.7,0,0,1-2.38,2.47,14.7,14.7,0,0,1-1.71.13,13.56,13.56,0,0,1-1.86-.1A2.68,2.68,0,0,1,9.57,24v0A10,10,0,0,1,10,21.33h0a7.43,7.43,0,0,0,3.5,1A7.61,7.61,0,0,0,17.26,21.36Z"/></g><g id="Inside"><line class="cls-1" x1="13.53" y1="17.05" x2="13.53" y2="22.28"/><line class="cls-1" x1="17.93" y1="12.97" x2="13.53" y2="17.05"/><line class="cls-1" x1="9.26" y1="13.1" x2="13.53" y2="17.05"/></g><g id="Light_Effect" data-name="Light Effect"><path class="cls-1" d="M.18,9.25,4,10.75"/><path class="cls-1" d="M4.56,3.38,6.85,5.73"/><path class="cls-1" d="M13.2,0l0,3.37,0-.42"/><path class="cls-1" d="M19.9,5.73l2-3.23"/><path class="cls-1" d="M23,10.75l3.34-2.07"/></g></g></g></svg>